<svg xmlns="http://www.w3.org/2000/svg" width="154" height="104" fill="none"><mask id="b" fill="#fff"><path d="M80.826 81.182c3.905 3.905 3.945 10.335-.64 13.413a51.493 51.493 0 0 1-48.401 4.819 51.49 51.49 0 1 1 48.4-90.32c4.586 3.078 4.546 9.508.641 13.413L58.56 44.773c-3.905 3.906-3.905 10.237 0 14.143l22.266 22.266Z"/></mask><path stroke="url(#a)" stroke-width="30" d="M80.826 81.182c3.905 3.905 3.945 10.335-.64 13.413a51.493 51.493 0 0 1-48.401 4.819 51.49 51.49 0 1 1 48.4-90.32c4.586 3.078 4.546 9.508.641 13.413L58.56 44.773c-3.905 3.906-3.905 10.237 0 14.143l22.266 22.266Z" mask="url(#b)"/><path stroke="url(#c)" stroke-width="15" d="M146.5 51.5c0 24.37-19.544 44-43.5 44s-43.5-19.63-43.5-44 19.544-44 43.5-44 43.5 19.63 43.5 44Z"/><defs><linearGradient id="a" x1="10.864" x2="93.401" y1="91.028" y2="12.816" gradientUnits="userSpaceOnUse"><stop stop-color="#08CBFF"/><stop offset="1" stop-color="#186DFF"/></linearGradient><linearGradient id="c" x1="62.761" x2="145.268" y1="90.692" y2="13.267" gradientUnits="userSpaceOnUse"><stop stop-color="#08CBFF"/><stop offset="1" stop-color="#186DFF"/></linearGradient></defs></svg>